<mxfile host="app.diagrams.net" modified="2024-05-07T19:53:30.657Z" agent="Mozilla/5.0 (Windows NT 10.0; Win64; x64) AppleWebKit/537.36 (KHTML, like Gecko) Chrome/121.0.0.0 Safari/537.36 OPR/107.0.0.0" etag="E67eGaYQuBBa50gbqLse" version="24.3.1" type="device">
  <diagram name="Página-1" id="A5HEKCXXRj-h5MuLTvXJ">
    <mxGraphModel dx="1031" dy="1783" grid="1" gridSize="10" guides="1" tooltips="1" connect="1" arrows="1" fold="1" page="1" pageScale="1" pageWidth="827" pageHeight="1169" math="0" shadow="0">
      <root>
        <mxCell id="0" />
        <mxCell id="1" parent="0" />
        <mxCell id="9Mlc68qXHa9wADwJvSaC-1" value="PESSOA" style="whiteSpace=wrap;html=1;align=center;" vertex="1" parent="1">
          <mxGeometry x="134" y="240" width="100" height="40" as="geometry" />
        </mxCell>
        <mxCell id="9Mlc68qXHa9wADwJvSaC-2" value="BANCO" style="whiteSpace=wrap;html=1;align=center;" vertex="1" parent="1">
          <mxGeometry x="344" y="80" width="100" height="40" as="geometry" />
        </mxCell>
        <mxCell id="9Mlc68qXHa9wADwJvSaC-4" value="COMPANY" style="whiteSpace=wrap;html=1;align=center;" vertex="1" parent="1">
          <mxGeometry x="554" y="240" width="100" height="40" as="geometry" />
        </mxCell>
        <mxCell id="9Mlc68qXHa9wADwJvSaC-11" style="edgeStyle=orthogonalEdgeStyle;rounded=0;orthogonalLoop=1;jettySize=auto;html=1;entryX=0.5;entryY=0;entryDx=0;entryDy=0;" edge="1" parent="1" source="9Mlc68qXHa9wADwJvSaC-6" target="9Mlc68qXHa9wADwJvSaC-10">
          <mxGeometry relative="1" as="geometry" />
        </mxCell>
        <mxCell id="9Mlc68qXHa9wADwJvSaC-6" value="U" style="strokeWidth=2;html=1;shape=mxgraph.flowchart.start_2;whiteSpace=wrap;" vertex="1" parent="1">
          <mxGeometry x="374" y="220" width="40" height="40" as="geometry" />
        </mxCell>
        <mxCell id="9Mlc68qXHa9wADwJvSaC-7" style="edgeStyle=orthogonalEdgeStyle;rounded=0;orthogonalLoop=1;jettySize=auto;html=1;entryX=0;entryY=0.5;entryDx=0;entryDy=0;entryPerimeter=0;" edge="1" parent="1" source="9Mlc68qXHa9wADwJvSaC-1" target="9Mlc68qXHa9wADwJvSaC-6">
          <mxGeometry relative="1" as="geometry" />
        </mxCell>
        <mxCell id="9Mlc68qXHa9wADwJvSaC-8" style="edgeStyle=orthogonalEdgeStyle;rounded=0;orthogonalLoop=1;jettySize=auto;html=1;entryX=0.5;entryY=0;entryDx=0;entryDy=0;entryPerimeter=0;" edge="1" parent="1" source="9Mlc68qXHa9wADwJvSaC-2" target="9Mlc68qXHa9wADwJvSaC-6">
          <mxGeometry relative="1" as="geometry" />
        </mxCell>
        <mxCell id="9Mlc68qXHa9wADwJvSaC-9" style="edgeStyle=orthogonalEdgeStyle;rounded=0;orthogonalLoop=1;jettySize=auto;html=1;entryX=1;entryY=0.5;entryDx=0;entryDy=0;entryPerimeter=0;" edge="1" parent="1" source="9Mlc68qXHa9wADwJvSaC-4" target="9Mlc68qXHa9wADwJvSaC-6">
          <mxGeometry relative="1" as="geometry" />
        </mxCell>
        <mxCell id="9Mlc68qXHa9wADwJvSaC-10" value="OWNER" style="whiteSpace=wrap;html=1;align=center;" vertex="1" parent="1">
          <mxGeometry x="319" y="350" width="150" height="60" as="geometry" />
        </mxCell>
        <mxCell id="9Mlc68qXHa9wADwJvSaC-16" style="edgeStyle=orthogonalEdgeStyle;rounded=0;orthogonalLoop=1;jettySize=auto;html=1;entryX=1;entryY=0;entryDx=0;entryDy=0;" edge="1" parent="1" source="9Mlc68qXHa9wADwJvSaC-12" target="9Mlc68qXHa9wADwJvSaC-1">
          <mxGeometry relative="1" as="geometry">
            <Array as="points">
              <mxPoint x="234" y="40" />
            </Array>
          </mxGeometry>
        </mxCell>
        <mxCell id="9Mlc68qXHa9wADwJvSaC-12" value="LICENÇA" style="ellipse;whiteSpace=wrap;html=1;align=center;fontStyle=4;" vertex="1" parent="1">
          <mxGeometry x="74" y="10" width="100" height="40" as="geometry" />
        </mxCell>
        <mxCell id="9Mlc68qXHa9wADwJvSaC-17" style="edgeStyle=orthogonalEdgeStyle;rounded=0;orthogonalLoop=1;jettySize=auto;html=1;entryX=0.75;entryY=0;entryDx=0;entryDy=0;" edge="1" parent="1" source="9Mlc68qXHa9wADwJvSaC-13" target="9Mlc68qXHa9wADwJvSaC-1">
          <mxGeometry relative="1" as="geometry">
            <Array as="points">
              <mxPoint x="209" y="80" />
            </Array>
          </mxGeometry>
        </mxCell>
        <mxCell id="9Mlc68qXHa9wADwJvSaC-13" value="CPF" style="ellipse;whiteSpace=wrap;html=1;align=center;fontStyle=4;" vertex="1" parent="1">
          <mxGeometry x="74" y="60" width="100" height="40" as="geometry" />
        </mxCell>
        <mxCell id="9Mlc68qXHa9wADwJvSaC-14" value="NOME" style="ellipse;whiteSpace=wrap;html=1;align=center;fontStyle=4;" vertex="1" parent="1">
          <mxGeometry x="74" y="110" width="100" height="40" as="geometry" />
        </mxCell>
        <mxCell id="9Mlc68qXHa9wADwJvSaC-19" style="edgeStyle=orthogonalEdgeStyle;rounded=0;orthogonalLoop=1;jettySize=auto;html=1;entryX=0.5;entryY=0;entryDx=0;entryDy=0;" edge="1" parent="1" source="9Mlc68qXHa9wADwJvSaC-15" target="9Mlc68qXHa9wADwJvSaC-1">
          <mxGeometry relative="1" as="geometry">
            <Array as="points">
              <mxPoint x="184" y="180" />
            </Array>
          </mxGeometry>
        </mxCell>
        <mxCell id="9Mlc68qXHa9wADwJvSaC-15" value="ENDEREÇO" style="ellipse;whiteSpace=wrap;html=1;align=center;fontStyle=4;" vertex="1" parent="1">
          <mxGeometry x="74" y="160" width="100" height="40" as="geometry" />
        </mxCell>
        <mxCell id="9Mlc68qXHa9wADwJvSaC-18" style="edgeStyle=orthogonalEdgeStyle;rounded=0;orthogonalLoop=1;jettySize=auto;html=1;" edge="1" parent="1" source="9Mlc68qXHa9wADwJvSaC-14" target="9Mlc68qXHa9wADwJvSaC-1">
          <mxGeometry relative="1" as="geometry">
            <Array as="points">
              <mxPoint x="196" y="130" />
            </Array>
          </mxGeometry>
        </mxCell>
        <mxCell id="9Mlc68qXHa9wADwJvSaC-22" style="edgeStyle=orthogonalEdgeStyle;rounded=0;orthogonalLoop=1;jettySize=auto;html=1;entryX=0.5;entryY=0;entryDx=0;entryDy=0;" edge="1" parent="1" source="9Mlc68qXHa9wADwJvSaC-20" target="9Mlc68qXHa9wADwJvSaC-2">
          <mxGeometry relative="1" as="geometry" />
        </mxCell>
        <mxCell id="9Mlc68qXHa9wADwJvSaC-20" value="Bnome" style="ellipse;whiteSpace=wrap;html=1;align=center;fontStyle=4;" vertex="1" parent="1">
          <mxGeometry x="294" y="-20" width="100" height="40" as="geometry" />
        </mxCell>
        <mxCell id="9Mlc68qXHa9wADwJvSaC-23" value="" style="edgeStyle=orthogonalEdgeStyle;rounded=0;orthogonalLoop=1;jettySize=auto;html=1;" edge="1" parent="1" source="9Mlc68qXHa9wADwJvSaC-21" target="9Mlc68qXHa9wADwJvSaC-2">
          <mxGeometry relative="1" as="geometry" />
        </mxCell>
        <mxCell id="9Mlc68qXHa9wADwJvSaC-21" value="Bendereco" style="ellipse;whiteSpace=wrap;html=1;align=center;fontStyle=4;" vertex="1" parent="1">
          <mxGeometry x="394" y="-20" width="100" height="40" as="geometry" />
        </mxCell>
        <mxCell id="9Mlc68qXHa9wADwJvSaC-26" style="edgeStyle=orthogonalEdgeStyle;rounded=0;orthogonalLoop=1;jettySize=auto;html=1;entryX=0.5;entryY=0;entryDx=0;entryDy=0;" edge="1" parent="1" source="9Mlc68qXHa9wADwJvSaC-24" target="9Mlc68qXHa9wADwJvSaC-4">
          <mxGeometry relative="1" as="geometry" />
        </mxCell>
        <mxCell id="9Mlc68qXHa9wADwJvSaC-24" value="Cendereco" style="ellipse;whiteSpace=wrap;html=1;align=center;fontStyle=4;" vertex="1" parent="1">
          <mxGeometry x="514" y="160" width="100" height="40" as="geometry" />
        </mxCell>
        <mxCell id="9Mlc68qXHa9wADwJvSaC-27" style="edgeStyle=orthogonalEdgeStyle;rounded=0;orthogonalLoop=1;jettySize=auto;html=1;" edge="1" parent="1" source="9Mlc68qXHa9wADwJvSaC-25">
          <mxGeometry relative="1" as="geometry">
            <mxPoint x="604" y="240" as="targetPoint" />
            <Array as="points">
              <mxPoint x="654" y="220" />
              <mxPoint x="605" y="220" />
            </Array>
          </mxGeometry>
        </mxCell>
        <mxCell id="9Mlc68qXHa9wADwJvSaC-25" value="Cendereco" style="ellipse;whiteSpace=wrap;html=1;align=center;fontStyle=4;" vertex="1" parent="1">
          <mxGeometry x="614" y="160" width="100" height="40" as="geometry" />
        </mxCell>
        <mxCell id="9Mlc68qXHa9wADwJvSaC-28" value="" style="shape=requiredInterface;html=1;verticalLabelPosition=bottom;sketch=0;rotation=90;" vertex="1" parent="1">
          <mxGeometry x="389" y="300" width="10" height="20" as="geometry" />
        </mxCell>
      </root>
    </mxGraphModel>
  </diagram>
</mxfile>
